<?xml version="1.0" encoding="UTF-8"?>
<svg version="1.1" xmlns="http://www.w3.org/2000/svg" width="225" height="225">
<path d="M0 0 C74.25 0 148.5 0 225 0 C225 74.25 225 148.5 225 225 C150.75 225 76.5 225 0 225 C0 150.75 0 76.5 0 0 Z " fill="#FDFEFE" transform="translate(0,0)"/>
<path d="M0 0 C1.28777344 0.00064453 2.57554688 0.00128906 3.90234375 0.00195312 C9.48265506 0.0279753 14.75357663 0.14823851 20.25 1.1875 C20.25 1.5175 20.25 1.8475 20.25 2.1875 C19.23353394 2.18580811 19.23353394 2.18580811 18.1965332 2.18408203 C-8.51876891 2.28769082 -31.27243419 7.26077284 -51.75 25.1875 C-52.49507812 25.77789062 -53.24015625 26.36828125 -54.0078125 26.9765625 C-68.47591749 38.82326868 -77.75734067 57.18679511 -81.375 75.3203125 C-81.9264042 81.00666836 -81.97494198 86.66490351 -82 92.375 C-82.020625 93.53064453 -82.04125 94.68628906 -82.0625 95.87695312 C-82.09382653 102.85102163 -81.36049948 108.95691238 -79.39746094 115.6574707 C-78.75 118.1875 -78.75 118.1875 -78.75 122.1875 C-70.6942836 118.47304863 -63.53414431 114.70032261 -56.73828125 108.88671875 C-54.75 107.1875 -54.75 107.1875 -51.75 105.1875 C-55.37173688 113.6759458 -64.87879204 119.08140054 -72.75 123.1875 C-73.74 123.5175 -74.73 123.8475 -75.75 124.1875 C-75.16196203 127.21169525 -74.52321882 130.20508453 -73.75 133.1875 C-57.74110037 128.29796011 -43.28732423 119.02535644 -31.28125 107.54296875 C-28.75 105.1875 -28.75 105.1875 -25.75 103.1875 C-26.30946428 106.80431834 -27.51322923 108.20470753 -30.3125 110.5 C-33.50957749 113.14705059 -33.50957749 113.14705059 -36.6015625 115.9140625 C-46.18290828 124.84306133 -58.04471083 130.57176907 -69.75 136.1875 C-67.77849656 143.26415972 -63.53420834 147.76849379 -58.75 153.1875 C-58.11835937 153.90421875 -57.48671875 154.6209375 -56.8359375 155.359375 C-42.43651596 170.67790855 -22.97917582 178.21391189 -2.75 182.1875 C-2.75 182.5175 -2.75 182.8475 -2.75 183.1875 C-24.12954487 184.14479305 -46.71897304 173.6918137 -62.42382812 159.69580078 C-68.3768035 154.16979501 -74.62587734 148.24192035 -78.75 141.1875 C-78.75 140.5275 -78.75 139.8675 -78.75 139.1875 C-79.27207031 139.4040625 -79.79414062 139.620625 -80.33203125 139.84375 C-87.18147615 142.43478345 -94.26858454 143.59954363 -101.390625 141.35546875 C-103.81698035 140.15434251 -105.18306439 139.3891437 -106.75 137.1875 C-108.88239353 128.05648157 -105.86240972 121.50879598 -101.21582031 113.95019531 C-98.19821436 109.33690479 -98.19821436 109.33690479 -94.75 108.1875 C-95.80875074 111.59062738 -96.75902154 114.20103231 -98.75 117.1875 C-99.08340471 120.22945427 -99.08340471 120.22945427 -98.75 123.1875 C-96.25494038 125.68255962 -95.07671112 125.54698376 -91.625 125.8125 C-90.71492188 125.88726562 -89.80484375 125.96203125 -88.8671875 126.0390625 C-87.81917969 126.11253906 -87.81917969 126.11253906 -86.75 126.1875 C-87.09933594 125.11371094 -87.44867188 124.03992188 -87.80859375 122.93359375 C-88.26852249 121.49748974 -88.72814142 120.06128648 -89.1875 118.625 C-89.41759766 117.92052734 -89.64769531 117.21605469 -89.88476562 116.49023438 C-96.73168712 94.95716241 -93.95565944 69.20112599 -83.75 49.1875 C-74.8495101 33.63424914 -61.58816534 19.63452151 -45.75 11.1875 C-44.76644531 10.6615625 -43.78289062 10.135625 -42.76953125 9.59375 C-28.60749459 2.27041546 -15.92660578 -0.1532956 0 0 Z " fill="#62A434" transform="translate(113.75,21.8125)"/>
<path d="M0 0 C3.95286497 1.39848652 7.00854054 3.26132796 10.375 5.75 C11.344375 6.45253906 12.31375 7.15507813 13.3125 7.87890625 C15.61633282 9.69719291 17.415722 11.527396 19.375 13.6875 C20.93548022 15.24350397 20.93548022 15.24350397 23 16 C26.41323595 15.65778754 29.48402 14.84345805 32.77734375 13.890625 C38.36308008 12.3469306 42.91428591 12.26613763 48.375 14.1875 C51.42237748 16.29164159 52.68804529 17.52717871 54 21 C54.31675197 29.71067916 48.74215951 40.52002111 43 47 C42.34 47 41.68 47 41 47 C41.32226562 47.87527344 41.64453125 48.75054687 41.9765625 49.65234375 C45.89602475 63.46758106 44.76536261 82.85836464 39 96 C38.47921875 97.19496094 37.9584375 98.38992187 37.421875 99.62109375 C30.25673148 115.2305769 18.9732433 127.57349944 4 136 C2.79923828 136.69222656 2.79923828 136.69222656 1.57421875 137.3984375 C-15.32985018 146.5282947 -37.19415365 149.02566929 -55.875 144.5 C-66.27061961 141.26939679 -76.05802985 136.17257724 -85 130 C-84.505 129.01 -84.505 129.01 -84 128 C-83.47792969 128.31453125 -82.95585938 128.6290625 -82.41796875 128.953125 C-71.83165936 135.1083872 -60.24695506 139.14556127 -48 140 C-46.92878906 140.08121094 -46.92878906 140.08121094 -45.8359375 140.1640625 C-26.50260465 140.89487577 -6.68421501 134.64981222 8 122 C8.71542969 121.26136719 9.43085938 120.52273437 10.16796875 119.76171875 C12 118 12 118 14 118 C14.27585937 117.39800781 14.55171875 116.79601562 14.8359375 116.17578125 C16 114 16 114 18.625 111.1875 C32.93020302 94.77859066 35.19885821 74.99170198 34.24511719 54.06103516 C33.76240992 48.03296377 32.22881437 42.62084209 30 37 C29.32566477 35.00257254 28.65689408 33.00323104 28 31 C16.46693257 35.25297498 6.85939726 40.38122835 -2 49 C-2.66 48.67 -3.32 48.34 -4 48 C4.07231979 39.79184791 13.97637452 32.67454183 25 29 C24.01 26.03 24.01 26.03 23 23 C18.24499471 21.42410744 14.97262921 22.81939628 10.625 24.8125 C9.92600586 25.12799805 9.22701172 25.44349609 8.50683594 25.76855469 C-4.31399257 31.77237047 -14.93670818 40.14284638 -25 50 C-25 47 -25 47 -23.74560547 45.38232422 C-19.45706993 41.21799021 -15.02734471 37.54384656 -10.125 34.125 C-9.39974121 33.61614258 -8.67448242 33.10728516 -7.92724609 32.58300781 C-2.66604341 28.96996086 2.74122416 25.7463269 8.375 22.75 C9.09413574 22.36730957 9.81327148 21.98461914 10.55419922 21.59033203 C15.59789205 19 15.59789205 19 19 19 C14.91327836 14.08316302 10.67665967 9.68036462 5.80078125 5.54296875 C3.7600079 3.79436686 1.86078709 1.93831989 0 0 Z " fill="#2988ED" transform="translate(162,47)"/>
<path d="M0 0 C0.495 0.99 0.495 0.99 1 2 C-0.13477029 3.13477029 -1.27142852 4.26767951 -2.4140625 5.39453125 C-3.49769923 6.49151326 -4.55428082 7.61571588 -5.5859375 8.76171875 C-15.8701372 19.8318289 -29.5004452 26.6493553 -43 33 C-41.02849656 40.07665972 -36.78420834 44.58099379 -32 50 C-31.36835937 50.71671875 -30.73671875 51.4334375 -30.0859375 52.171875 C-15.68651596 67.49040855 3.77082418 75.02641189 24 79 C24 79.33 24 79.66 24 80 C2.62045513 80.95729305 -19.96897304 70.5043137 -35.67382812 56.50830078 C-41.6268035 50.98229501 -47.87587734 45.05442035 -52 38 C-52 37.34 -52 36.68 -52 36 C-52.52207031 36.2165625 -53.04414062 36.433125 -53.58203125 36.65625 C-60.43147615 39.24728345 -67.51858454 40.41204363 -74.640625 38.16796875 C-77.06698035 36.96684251 -78.43306439 36.2016437 -80 34 C-82.13239353 24.86898157 -79.11240972 18.32129598 -74.46582031 10.76269531 C-71.44821436 6.14940479 -71.44821436 6.14940479 -68 5 C-69.05875074 8.40312738 -70.00902154 11.01353231 -72 14 C-72.33340471 17.04195427 -72.33340471 17.04195427 -72 20 C-69.61334964 22.38665036 -68.96548475 22.34629584 -65.6875 22.4375 C-50.82719239 22.07453272 -36.3466798 12.00283243 -26 2 C-26 5 -26 5 -27.8359375 7.05078125 C-34.21270814 12.73101232 -40.78902963 18.26300988 -49 21 C-48.41196203 24.02419525 -47.77321882 27.01758453 -47 30 C-28.73679659 24.42193632 -13.34568294 13.34568294 0 0 Z " fill="#2C85DF" transform="translate(87,125)"/>
<path d="M0 0 C3.95286497 1.39848652 7.00854054 3.26132796 10.375 5.75 C11.344375 6.45253906 12.31375 7.15507813 13.3125 7.87890625 C15.61633282 9.69719291 17.415722 11.527396 19.375 13.6875 C20.93548022 15.24350397 20.93548022 15.24350397 23 16 C26.41323595 15.65778754 29.48402 14.84345805 32.77734375 13.890625 C38.36308008 12.3469306 42.91428591 12.26613763 48.375 14.1875 C51.42237748 16.29164159 52.68804529 17.52717871 54 21 C54.32898443 30.04707186 48.58118326 40.0834416 43 47 C41.515 46.505 41.515 46.505 40 46 C40.45375 45.62875 40.9075 45.2575 41.375 44.875 C44.0891467 41.74329227 44.8799592 38.32044884 45.25 34.25 C45.21473892 31.79827556 45.21473892 31.79827556 43 30 C28.44388505 27.64686554 17.00646498 34.59632789 5.25390625 42.35546875 C2.50409917 44.36182712 0.24380282 46.44670713 -2 49 C-2.66 48.67 -3.32 48.34 -4 48 C4.07231979 39.79184791 13.97637452 32.67454183 25 29 C24.34 27.02 23.68 25.04 23 23 C18.24499471 21.42410744 14.97262921 22.81939628 10.625 24.8125 C9.92600586 25.12799805 9.22701172 25.44349609 8.50683594 25.76855469 C-4.31399257 31.77237047 -14.93670818 40.14284638 -25 50 C-25 47 -25 47 -23.74560547 45.38232422 C-19.45706993 41.21799021 -15.02734471 37.54384656 -10.125 34.125 C-9.03711182 33.36171387 -9.03711182 33.36171387 -7.92724609 32.58300781 C-2.66604341 28.96996086 2.74122416 25.7463269 8.375 22.75 C9.09413574 22.36730957 9.81327148 21.98461914 10.55419922 21.59033203 C15.59789205 19 15.59789205 19 19 19 C14.91327836 14.08316302 10.67665967 9.68036462 5.80078125 5.54296875 C3.7600079 3.79436686 1.86078709 1.93831989 0 0 Z " fill="#74AB4F" transform="translate(162,47)"/>
<path d="M0 0 C1.67385637 2.21601739 3.32149325 4.44608803 4.9453125 6.69921875 C21.22731837 29.02132357 42.14052727 40.72403214 69 46 C69 46.33 69 46.66 69 47 C47.62045513 47.95729305 25.03102696 37.5043137 9.32617188 23.50830078 C3.3731965 17.98229501 -2.87587734 12.05442035 -7 5 C-7 4.34 -7 3.68 -7 3 C-4.69 2.01 -2.38 1.02 0 0 Z " fill="#64A637" transform="translate(42,158)"/>
<path d="M0 0 C3.04737748 2.10414159 4.31304529 3.33967871 5.625 6.8125 C5.95398443 15.85957186 0.20618326 25.8959416 -5.375 32.8125 C-6.365 32.4825 -7.355 32.1525 -8.375 31.8125 C-7.92125 31.44125 -7.4675 31.07 -7 30.6875 C-4.2858533 27.55579227 -3.4950408 24.13294884 -3.125 20.0625 C-3.16026108 17.61077556 -3.16026108 17.61077556 -5.375 15.8125 C-19.93111495 13.45936554 -31.36853502 20.40882789 -43.12109375 28.16796875 C-45.87090083 30.17432712 -48.13119718 32.25920713 -50.375 34.8125 C-51.035 34.4825 -51.695 34.1525 -52.375 33.8125 C-41.45511255 22.70886445 -25.4358045 11.92375451 -9.4375 11.375 C-5.43412735 11.38089598 -3.26288876 11.96337485 -0.375 14.8125 C0.375 17 0.375 17 0.625 18.8125 C0.73315225 17.04300905 0.81066083 15.27162513 0.875 13.5 C0.92140625 12.51386719 0.9678125 11.52773437 1.015625 10.51171875 C0.86496401 7.76031381 0.86496401 7.76031381 -0.9453125 5.99609375 C-4.18397498 4.41841733 -6.91047888 4.32988184 -10.5 4.1875 C-17.21099089 3.89450456 -17.21099089 3.89450456 -19.375 2.8125 C-20.70360925 2.46080932 -22.03658328 2.12479724 -23.375 1.8125 C-15.39594754 -0.69307161 -8.11770715 -2.85623029 0 0 Z " fill="#7BAC5C" transform="translate(210.375,61.1875)"/>
<path d="M0 0 C2.0625 -0.061875 4.125 -0.12375 6.25 -0.1875 C7.99023438 -0.23970703 7.99023438 -0.23970703 9.765625 -0.29296875 C13.24698247 0.0223716 14.61831539 0.4782163 17 3 C17.25 6.1875 17.25 6.1875 17 9 C15.02 9.99 15.02 9.99 13 11 C14.98 14.3 16.96 17.6 19 21 C17.35 21 15.7 21 14 21 C12.3046875 19.28515625 12.3046875 19.28515625 10.875 17.0625 C8.71574792 13.60901189 8.71574792 13.60901189 5 12 C5 14.97 5 17.94 5 21 C3.35 21 1.7 21 0 21 C0 14.07 0 7.14 0 0 Z " fill="#529DF2" transform="translate(96,101)"/>
<path d="M0 0 C2.0625 -0.061875 4.125 -0.12375 6.25 -0.1875 C7.99023438 -0.23970703 7.99023438 -0.23970703 9.765625 -0.29296875 C13.24698247 0.0223716 14.61831539 0.4782163 17 3 C17.25 6.1875 17.25 6.1875 17 9 C15.02 9.99 15.02 9.99 13 11 C14.98 14.3 16.96 17.6 19 21 C17.35 21 15.7 21 14 21 C12.3046875 19.28515625 12.3046875 19.28515625 10.875 17.0625 C8.71574792 13.60901189 8.71574792 13.60901189 5 12 C5 14.97 5 17.94 5 21 C3.35 21 1.7 21 0 21 C0 14.07 0 7.14 0 0 Z " fill="#57A0EF" transform="translate(156,101)"/>
<path d="M0 0 C5.28 0 10.56 0 16 0 C16 1.32 16 2.64 16 4 C12.37 4 8.74 4 5 4 C5 5.32 5 6.64 5 8 C8.3 8 11.6 8 15 8 C15 9.32 15 10.64 15 12 C11.7 12 8.4 12 5 12 C5 13.65 5 15.3 5 17 C8.63 17 12.26 17 16 17 C16 18.32 16 19.64 16 21 C10.72 21 5.44 21 0 21 C0 14.07 0 7.14 0 0 Z " fill="#4395F1" transform="translate(137,101)"/>
<path d="M0 0 C4.95 0 9.9 0 15 0 C15 1.32 15 2.64 15 4 C11.37 4 7.74 4 4 4 C4 5.32 4 6.64 4 8 C7.3 8 10.6 8 14 8 C14 9.32 14 10.64 14 12 C10.7 12 7.4 12 4 12 C4 13.65 4 15.3 4 17 C7.96 17 11.92 17 16 17 C16 18.32 16 19.64 16 21 C10.72 21 5.44 21 0 21 C0 14.07 0 7.14 0 0 Z " fill="#378FF1" transform="translate(57,101)"/>
<path d="M0 0 C2.26171875 -0.05859375 2.26171875 -0.05859375 5 1 C6.72511926 3.80479646 7.73602894 6.83640789 8.8125 9.9375 C9.12380859 10.77474609 9.43511719 11.61199219 9.75585938 12.47460938 C12 18.60530563 12 18.60530563 12 21 C10.35 21 8.7 21 7 21 C6.67 19.68 6.34 18.36 6 17 C3.36 17 0.72 17 -2 17 C-2.66 18.32 -3.32 19.64 -4 21 C-5.32 21 -6.64 21 -8 21 C-5.72564796 13.81783567 -2.96415819 6.9241798 0 0 Z " fill="#2688EE" transform="translate(82,101)"/>
<path d="M0 0 C5 1 5 1 7.01953125 3.72265625 C7.90705078 5.37587891 7.90705078 5.37587891 8.8125 7.0625 C9.41707031 8.16722656 10.02164063 9.27195312 10.64453125 10.41015625 C11.09183594 11.26480469 11.53914062 12.11945313 12 13 C12.33 9.04 12.66 5.08 13 1 C13.99 1 14.98 1 16 1 C16 7.6 16 14.2 16 21 C11 20 11 20 9.19921875 17.71484375 C8.70035156 16.79832031 8.20148438 15.88179687 7.6875 14.9375 C7.17574219 14.01839844 6.66398437 13.09929687 6.13671875 12.15234375 C5.57404297 11.08693359 5.57404297 11.08693359 5 10 C4.67 13.63 4.34 17.26 4 21 C2.68 21 1.36 21 0 21 C0 14.07 0 7.14 0 0 Z " fill="#1F85EF" transform="translate(117,101)"/>
<path d="M0 0 C0.495 0.99 0.495 0.99 1 2 C-0.13477029 3.13477029 -1.27142852 4.26767951 -2.4140625 5.39453125 C-3.49769923 6.49151326 -4.55428082 7.61571588 -5.5859375 8.76171875 C-13.96301999 17.7789713 -24.72658842 24.04232332 -35.5625 29.6875 C-36.21669922 30.03876953 -36.87089844 30.39003906 -37.54492188 30.75195312 C-41.83052036 32.89254557 -44.39037185 33.14093215 -49 32 C-52.26410357 32.37617294 -52.26410357 32.37617294 -55 33 C-56.32 30.03 -57.64 27.06 -59 24 C-56.03 23.01 -53.06 22.02 -50 21 C-49.01 23.97 -48.02 26.94 -47 30 C-28.73679659 24.42193632 -13.34568294 13.34568294 0 0 Z " fill="#348DE6" transform="translate(87,125)"/>
<path d="M0 0 C0.75990234 -0.02900391 1.51980469 -0.05800781 2.30273438 -0.08789062 C6.148132 -0.13132257 8.27258786 0.08300844 11.703125 1.98046875 C14.146115 4.8514629 14.28053534 6.2146864 14.125 9.9375 C14.10308594 10.89914063 14.08117187 11.86078125 14.05859375 12.8515625 C13.6875 15.3125 13.6875 15.3125 11.6875 17.3125 C11.39875 16.178125 11.11 15.04375 10.8125 13.875 C10.44125 12.699375 10.07 11.52375 9.6875 10.3125 C6.84636722 8.89193361 4.53174024 9.44267412 1.375 9.625 C-4.70936122 9.69903537 -4.70936122 9.69903537 -7.28125 8.05078125 C-9.06575047 5.90834318 -10.3125 4.16205874 -10.3125 1.3125 C-7.07124994 -0.30812503 -3.55800138 0.04458648 0 0 Z " fill="#F8FAF7" transform="translate(198.3125,64.6875)"/>
<path d="M0 0 C2.4375 1.875 2.4375 1.875 4 4 C4 4.66 4 5.32 4 6 C0.66666667 5.33333333 -2.66666667 4.66666667 -6 4 C-6.33 4.99 -6.66 5.98 -7 7 C-5.93458984 7.30744141 -5.93458984 7.30744141 -4.84765625 7.62109375 C-3.46900391 8.02521484 -3.46900391 8.02521484 -2.0625 8.4375 C-1.14597656 8.70433594 -0.22945312 8.97117187 0.71484375 9.24609375 C3 10 3 10 4 11 C4.47077543 17.35546834 4.47077543 17.35546834 2.76171875 19.6953125 C-0.03039438 21.76308586 -2.46138685 21.52861569 -5.8359375 21.4296875 C-8 21 -8 21 -10.5625 18.625 C-12 16 -12 16 -12 14 C-9.525 14.495 -9.525 14.495 -7 15 C-7 15.66 -7 16.32 -7 17 C-4.69 17 -2.38 17 0 17 C0 15.68 0 14.36 0 13 C-0.9075 12.87625 -1.815 12.7525 -2.75 12.625 C-8.0228833 11.61098398 -8.0228833 11.61098398 -10 10 C-10.75 6.375 -10.75 6.375 -11 3 C-7.49723787 -0.36265164 -4.75045142 -0.59380643 0 0 Z " fill="#2588EF" transform="translate(188,101)"/>
<path d="M0 0 C0.268125 0.598125 0.53625 1.19625 0.8125 1.8125 C2.07942871 4.14631604 2.87050002 5.41189832 5 7 C8.20138068 7.3636162 8.20138068 7.3636162 11.6875 7.1875 C12.86699219 7.16042969 14.04648437 7.13335937 15.26171875 7.10546875 C16.16535156 7.07066406 17.06898437 7.03585938 18 7 C19.5625 9.8125 19.5625 9.8125 21 13 C20.67 13.99 20.34 14.98 20 16 C7.16051749 17.74988021 7.16051749 17.74988021 1 14 C-1.105184 10.842224 -1.25289344 10.04602866 -1.1875 6.4375 C-1.18105469 5.65246094 -1.17460937 4.86742187 -1.16796875 4.05859375 C-1 2 -1 2 0 0 Z " fill="#F1F6F8" transform="translate(11,143)"/>
<path d="M0 0 C1.93668593 1.82998147 3.077704 3.15170781 4.3125 5.5625 C5.83514071 8.14072995 5.83514071 8.14072995 8.4375 9.375 C14.9022268 10.5091626 21.6794735 9.87866638 27.9375 7.875 C31.14111071 6.95968266 32.84996447 7.04544378 36 8 C35 10 35 10 31.7890625 11.2890625 C22.27143882 14.44386495 12.57301278 17.65333027 3 13 C1.19921875 11.69921875 1.19921875 11.69921875 0 10 C-0.29296875 7.51953125 -0.29296875 7.51953125 -0.1875 4.8125 C-0.16042969 3.91144531 -0.13335938 3.01039063 -0.10546875 2.08203125 C-0.07066406 1.39496094 -0.03585938 0.70789063 0 0 Z " fill="#318BE7" transform="translate(7,149)"/>
<path d="M0 0 C3.04737748 2.10414159 4.31304529 3.33967871 5.625 6.8125 C5.65758677 9.68556704 5.24302129 11.96009405 4.625 14.8125 C3.965 15.1425 3.305 15.4725 2.625 15.8125 C2.234375 13.82682292 1.84375 11.84114583 1.453125 9.85546875 C0.32606281 7.07502759 -0.73293121 6.23817078 -3.375 4.8125 C-6.80697565 4.27143 -6.80697565 4.27143 -10.5 4.1875 C-17.21099089 3.89450456 -17.21099089 3.89450456 -19.375 2.8125 C-20.70360925 2.46080932 -22.03658328 2.12479724 -23.375 1.8125 C-15.39594754 -0.69307161 -8.11770715 -2.85623029 0 0 Z " fill="#60A131" transform="translate(210.375,61.1875)"/>
<path d="M0 0 C1.60332791 -0.08121924 3.20784026 -0.13929134 4.8125 -0.1875 C6.15248047 -0.23970703 6.15248047 -0.23970703 7.51953125 -0.29296875 C10 0 10 0 11.83203125 1.2734375 C13.54717738 3.80887091 13.00609193 6.01563783 12.52734375 8.92578125 C11.78011135 11.86489534 10.50581462 14.38119196 9 17 C8.34 17 7.68 17 7 17 C5.82866942 14.54379149 4.66278278 12.08525083 3.5 9.625 C3.16613281 8.92632812 2.83226562 8.22765625 2.48828125 7.5078125 C0 2.2265625 0 2.2265625 0 0 Z " fill="#F5F8F6" transform="translate(195,76)"/>
<path d="M0 0 C0.99 0 1.98 0 3 0 C3 1.65 3 3.3 3 5 C8.1693489 4.59443869 8.1693489 4.59443869 13 3 C12.8453125 4.2375 12.8453125 4.2375 12.6875 5.5 C13.11169368 10.25096921 15.28442298 13.17879519 18 17 C15.69140625 17.24609375 15.69140625 17.24609375 13 17 C11.33984375 15.28515625 11.33984375 15.28515625 9.9375 13.0625 C8.00362104 9.88704479 8.00362104 9.88704479 4.81640625 8.24609375 C4.21699219 8.16488281 3.61757812 8.08367187 3 8 C3 10.64 3 13.28 3 16 C2.01 16 1.02 16 0 16 C0 10.72 0 5.44 0 0 Z " fill="#1081EE" transform="translate(97,105)"/>
<path d="M0 0 C1.32 0 2.64 0 4 0 C4 5.28 4 10.56 4 16 C7.3 16 10.6 16 14 16 C14 17.32 14 18.64 14 20 C9.38 20 4.76 20 0 20 C0 13.4 0 6.8 0 0 Z " fill="#298AF0" transform="translate(40,102)"/>
<path d="M0 0 C5.28 0 10.56 0 16 0 C16 1.32 16 2.64 16 4 C12.37 4 8.74 4 5 4 C5 3.67 5 3.34 5 3 C8.3 3 11.6 3 15 3 C15 2.34 15 1.68 15 1 C10.38 1 5.76 1 1 1 C1.33 4.63 1.66 8.26 2 12 C2.66 12 3.32 12 4 12 C4 13.65 4 15.3 4 17 C7.96 17 11.92 17 16 17 C16 18.32 16 19.64 16 21 C10.72 21 5.44 21 0 21 C0 14.07 0 7.14 0 0 Z " fill="#5AA1F3" transform="translate(137,101)"/>
<path d="M0 0 C1.2684375 -0.00128906 2.536875 -0.00257812 3.84375 -0.00390625 C4.50213867 -0.00181152 5.16052734 0.0002832 5.83886719 0.00244141 C7.83788463 0.007776 9.83692159 0.00197321 11.8359375 -0.00390625 C13.74246094 -0.00197266 13.74246094 -0.00197266 15.6875 0 C16.84556152 0.00112793 18.00362305 0.00225586 19.19677734 0.00341797 C22.3730503 0.12872872 25.35738794 0.5373606 28.4765625 1.1328125 C28.4765625 1.4628125 28.4765625 1.7928125 28.4765625 2.1328125 C27.76749756 2.1421582 27.05843262 2.15150391 26.32788086 2.16113281 C7.9530297 2.40040467 7.9530297 2.40040467 -9.86328125 6.390625 C-12.5234375 7.1328125 -12.5234375 7.1328125 -15.5234375 6.1328125 C-10.31178756 0.4868584 -7.52237499 0.00734095 0 0 Z " fill="#77AD4F" transform="translate(105.5234375,21.8671875)"/>
<path d="M0 0 C2.31 0 4.62 0 7 0 C7.66 1.32 8.32 2.64 9 4 C9.99 4 10.98 4 12 4 C11.01 5.485 11.01 5.485 10 7 C9.34 7 8.68 7 8 7 C9.98 10.3 11.96 13.6 14 17 C9 17 9 17 7.41796875 15.609375 C7.01191406 14.99578125 6.60585937 14.3821875 6.1875 13.75 C5.55908203 12.84507813 5.55908203 12.84507813 4.91796875 11.921875 C4 10 4 10 4 6 C2.68 5.67 1.36 5.34 0 5 C0 3.35 0 1.7 0 0 Z " fill="#2A8AEF" transform="translate(161,105)"/>
<path d="M0 0 C1.65 0.33 3.3 0.66 5 1 C6.36328125 3.50390625 6.36328125 3.50390625 7.3125 6.5625 C7.63863281 7.57441406 7.96476562 8.58632812 8.30078125 9.62890625 C8.53152344 10.41136719 8.76226562 11.19382812 9 12 C8.34 12 7.68 12 7 12 C7 11.34 7 10.68 7 10 C6.01 10.495 6.01 10.495 5 11 C5 11.66 5 12.32 5 13 C3.02 13 1.04 13 -1 13 C-0.67 11.68 -0.34 10.36 0 9 C-1.32 9.33 -2.64 9.66 -4 10 C-2.68 6.7 -1.36 3.4 0 0 Z " fill="#2C8BEF" transform="translate(82,101)"/>
<path d="M0 0 C4 6 4 6 4 10 C1.36 10.66 -1.28 11.32 -4 12 C-5.32 9.03 -6.64 6.06 -8 3 C-5.36 2.01 -2.72 1.02 0 0 Z " fill="#5FA434" transform="translate(36,146)"/>
<path d="M0 0 C0.99 0 1.98 0 3 0 C3 6.6 3 13.2 3 20 C1.35 19.67 -0.3 19.34 -2 19 C-2.66 16.36 -3.32 13.72 -4 11 C-3.01 11.33 -2.02 11.66 -1 12 C-0.67 8.04 -0.34 4.08 0 0 Z " fill="#1A84EF" transform="translate(130,102)"/>
<path d="M0 0 C1.93668593 1.82998147 3.077704 3.15170781 4.3125 5.5625 C6.47921109 8.69219379 8.37759808 9.11452398 12 10 C12 10.66 12 11.32 12 12 C13.32 12.33 14.64 12.66 16 13 C14.08700862 13.27672202 12.16922064 13.52042815 10.25 13.75 C9.18265625 13.88921875 8.1153125 14.0284375 7.015625 14.171875 C4 14 4 14 1.625 12.34375 C-0.32060316 9.5375916 -0.42754256 8.12330865 -0.25 4.75 C-0.21390625 3.85796875 -0.1778125 2.9659375 -0.140625 2.046875 C-0.09421875 1.37140625 -0.0478125 0.6959375 0 0 Z " fill="#1F83EA" transform="translate(7,149)"/>
<path d="M0 0 C8.80101894 3.11371789 16.10204567 9.86848504 23 16 C22.67 16.66 22.34 17.32 22 18 C17.68248386 17.55510372 15.49094671 14.75289178 12.6875 11.75 C8.72658901 7.62905891 4.75563868 4.17042579 0 1 C0 0.67 0 0.34 0 0 Z " fill="#378FE7" transform="translate(162,47)"/>
<path d="M0 0 C1.32451172 0.70576172 1.32451172 0.70576172 2.67578125 1.42578125 C9.96850022 5.23533445 16.89409537 8.26302044 25 10 C24.67 11.32 24.34 12.64 24 14 C18.03859415 12.35547425 12.86562494 10.01979403 7.5 7 C6.87657715 6.65582031 6.2531543 6.31164062 5.61083984 5.95703125 C1.12248403 3.3674521 1.12248403 3.3674521 0 0 Z " fill="#3E90E8" transform="translate(77,175)"/>
<path d="M0 0 C0.33 0 0.66 0 1 0 C1 2.64 1 5.28 1 8 C4.3 8 7.6 8 11 8 C9.25 10.0625 9.25 10.0625 7 12 C4.75 11.75 4.75 11.75 3 11 C3 13.64 3 16.28 3 19 C2.01 19 1.02 19 0 19 C0 12.73 0 6.46 0 0 Z " fill="#0F80EF" transform="translate(157,102)"/>
<path d="M0 0 C-0.66 1.32 -1.32 2.64 -2 4 C-3.0209375 3.505 -3.0209375 3.505 -4.0625 3 C-7.50840238 1.82692685 -10.38397422 1.85819507 -14 2 C-11.36 2.33 -8.72 2.66 -6 3 C-6 3.33 -6 3.66 -6 4 C-7.79158489 4.02696365 -9.58328473 4.04637917 -11.375 4.0625 C-12.37273437 4.07410156 -13.37046875 4.08570312 -14.3984375 4.09765625 C-17 4 -17 4 -19 3 C-20.32860925 2.64830932 -21.66158328 2.31229724 -23 2 C-15.33304723 -0.40756648 -7.86408579 -2.62136193 0 0 Z " fill="#83B461" transform="translate(210,61)"/>
<path d="M0 0 C4.62 0 9.24 0 14 0 C14 0.66 14 1.32 14 2 C10.7 2.33 7.4 2.66 4 3 C3.67 4.65 3.34 6.3 3 8 C2.67 8 2.34 8 2 8 C1.67 11.63 1.34 15.26 1 19 C0.67 19 0.34 19 0 19 C0 12.73 0 6.46 0 0 Z " fill="#1280EF" transform="translate(138,102)"/>
<path d="M0 0 C0.66 0 1.32 0 2 0 C0.58707905 4.8274799 -1.42974154 8.7162359 -4 13 C-4.66 13 -5.32 13 -6 13 C-6.33 15.97 -6.66 18.94 -7 22 C-7.99 21.01 -8.98 20.02 -10 19 C-9.92473694 14.22497667 -7.1021059 10.54658815 -4.5625 6.6875 C-4.15451172 6.04232422 -3.74652344 5.39714844 -3.32617188 4.73242188 C-2.27686704 3.11481492 -1.14441059 1.55177876 0 0 Z " fill="#5C99D9" transform="translate(17,130)"/>
<path d="M0 0 C0 3 0 3 -1.8359375 5.05078125 C-13.10770528 15.09132516 -13.10770528 15.09132516 -20 18 C-20.99 17.67 -21.98 17.34 -23 17 C-20.59992007 14.28997597 -18.10063074 12.91612554 -14.875 11.3125 C-9.14414446 8.28300646 -4.62873616 4.5030174 0 0 Z " fill="#348CE6" transform="translate(61,127)"/>
<path d="M0 0 C0.66 0 1.32 0 2 0 C2 0.66 2 1.32 2 2 C2.99 1.67 3.98 1.34 5 1 C6.98 4.3 8.96 7.6 11 11 C6 11 6 11 4.19921875 9.35546875 C3.70035156 8.64003906 3.20148438 7.92460938 2.6875 7.1875 C2.17574219 6.47980469 1.66398437 5.77210937 1.13671875 5.04296875 C0 3 0 3 0 0 Z " fill="#2C8BEF" transform="translate(104,111)"/>
<path d="M0 0 C0.33 0 0.66 0 1 0 C2.50118175 5.68304521 2.08554094 8.54685222 -0.75 13.75 C-2.65695829 16.98997767 -4.69607865 20.02988452 -7 23 C-7.99 22.67 -8.98 22.34 -10 22 C-9.54625 21.62875 -9.0925 21.2575 -8.625 20.875 C-6.52970606 18.45735315 -5.87986715 16.04569398 -5 13 C-4.34 13 -3.68 13 -3 13 C-3 10.36 -3 7.72 -3 5 C-2.34 6.32 -1.68 7.64 -1 9 C-0.67 6.03 -0.34 3.06 0 0 Z " fill="#8FB775" transform="translate(212,71)"/>
<path d="M0 0 C1.32 0 2.64 0 4 0 C4 0.66 4 1.32 4 2 C3.01 2.495 3.01 2.495 2 3 C2 5.97 2 8.94 2 12 C2.66 12 3.32 12 4 12 C4 14.97 4 17.94 4 21 C2.68 21 1.36 21 0 21 C0 14.07 0 7.14 0 0 Z " fill="#368FF0" transform="translate(117,101)"/>
<path d="M0 0 C0.98226562 0.27263672 0.98226562 0.27263672 1.984375 0.55078125 C8.96448954 2.47327042 15.9698181 4.27005995 23 6 C23 6.33 23 6.66 23 7 C16.69582833 7.349746 11.15460583 6.04072396 5.0625 4.5 C4.09248047 4.26152344 3.12246094 4.02304688 2.12304688 3.77734375 C-0.25318032 3.19206612 -2.62732042 2.59946749 -5 2 C-4.360625 1.855625 -3.72125 1.71125 -3.0625 1.5625 C-1.02454854 1.18992819 -1.02454854 1.18992819 0 0 Z " fill="#91B878" transform="translate(88,198)"/>
<path d="M0 0 C2.33528415 0.17298401 3.69177582 0.70225369 5.37890625 2.33203125 C9 6.57211538 9 6.57211538 9 9 C7.35 9.33 5.7 9.66 4 10 C0 3.375 0 3.375 0 0 Z " fill="#1D82E4" transform="translate(184,66)"/>
<path d="M0 0 C1.77049689 -0.05410687 3.54146849 -0.09284119 5.3125 -0.125 C6.29863281 -0.14820312 7.28476563 -0.17140625 8.30078125 -0.1953125 C11 0 11 0 14 2 C14.29296875 4.1640625 14.29296875 4.1640625 14.1875 6.625 C14.16042969 7.44226563 14.13335937 8.25953125 14.10546875 9.1015625 C14.07066406 9.72804688 14.03585938 10.35453125 14 11 C13.67 11 13.34 11 13 11 C12.731875 10.05125 12.46375 9.1025 12.1875 8.125 C11.25013412 4.74732727 11.25013412 4.74732727 8 3 C5.9507906 2.54860541 5.9507906 2.54860541 3.8125 2.375 C2.554375 2.25125 1.29625 2.1275 0 2 C0 1.34 0 0.68 0 0 Z " fill="#5EA128" transform="translate(195,73)"/>
<path d="M0 0 C2.64 0.66 5.28 1.32 8 2 C8 3.32 8 4.64 8 6 C5.6875 6.6875 5.6875 6.6875 3 7 C1.375 5.6875 1.375 5.6875 0 4 C-0.99 3.34 -1.98 2.68 -3 2 C-2.01 2 -1.02 2 0 2 C0 1.34 0 0.68 0 0 Z " fill="#EFF6FA" transform="translate(180,112)"/>
<path d="M0 0 C2.31 0 4.62 0 7 0 C7.5625 1.9375 7.5625 1.9375 8 4 C7 5 7 5 3.4375 5.0625 C2.303125 5.041875 1.16875 5.02125 0 5 C0 3.35 0 1.7 0 0 Z " fill="#F8FBFC" transform="translate(161,105)"/>
<path d="M0 0 C2.31 0 4.62 0 7 0 C7.5625 1.9375 7.5625 1.9375 8 4 C7 5 7 5 3.4375 5.0625 C2.303125 5.041875 1.16875 5.02125 0 5 C0 3.35 0 1.7 0 0 Z " fill="#F9FBFC" transform="translate(101,105)"/>
<path d="M0 0 C4.29 0.33 8.58 0.66 13 1 C13 1.33 13 1.66 13 2 C11.35 2 9.7 2 8 2 C8 2.99 8 3.98 8 5 C5.69 4.67 3.38 4.34 1 4 C0.67 2.68 0.34 1.36 0 0 Z " fill="#3189E6" transform="translate(101,186)"/>
<path d="M0 0 C0.33 0.66 0.66 1.32 1 2 C-0.12044744 3.12044744 -1.24263771 4.23918133 -2.37109375 5.3515625 C-3.59722346 6.59239401 -4.79284036 7.8634895 -5.97265625 9.1484375 C-6.66230469 9.88320312 -7.35195312 10.61796875 -8.0625 11.375 C-8.71347656 12.08398438 -9.36445312 12.79296875 -10.03515625 13.5234375 C-12 15 -12 15 -14.24609375 14.7265625 C-15.11427734 14.36691406 -15.11427734 14.36691406 -16 14 C-15.43152344 13.57589844 -14.86304687 13.15179688 -14.27734375 12.71484375 C-9.12443923 8.80070091 -4.44499803 4.7022648 0 0 Z " fill="#4C95E2" transform="translate(87,125)"/>
<path d="M0 0 C1.65 0 3.3 0 5 0 C5 0.33 5 0.66 5 1 C3.35 1 1.7 1 0 1 C0 0.67 0 0.34 0 0 Z M0 2 C-1.0625 3.9375 -1.0625 3.9375 -3 6 C-6.6875 6.75 -6.6875 6.75 -10 7 C-9.34 6.67 -8.68 6.34 -8 6 C-8.33 5.01 -8.66 4.02 -9 3 C-3.375 0.875 -3.375 0.875 0 2 Z " fill="#5CA02C" transform="translate(93,24)"/>
<path d="M0 0 C0.99 0.33 1.98 0.66 3 1 C4.1875 4.5625 4.1875 4.5625 5 8 C3.35 8 1.7 8 0 8 C-0.38063221 5.6739143 -0.71269945 3.33944736 -1 1 C-0.67 0.67 -0.34 0.34 0 0 Z " fill="#348FEF" transform="translate(89,114)"/>
<path d="M0 0 C0.99 0.33 1.98 0.66 3 1 C3 1.66 3 2.32 3 3 C3.66 3 4.32 3 5 3 C4 5 4 5 2 7 C-0.1640625 7.1953125 -0.1640625 7.1953125 -2.625 7.125 C-3.44226563 7.10695313 -4.25953125 7.08890625 -5.1015625 7.0703125 C-5.72804688 7.04710938 -6.35453125 7.02390625 -7 7 C-4.3359375 4.0234375 -4.3359375 4.0234375 -1.3125 3.8125 C-0.549375 3.874375 0.21375 3.93625 1 4 C0.67 2.68 0.34 1.36 0 0 Z " fill="#1481F0" transform="translate(86,110)"/>
<path d="M0 0 C2.97 0.33 5.94 0.66 9 1 C9 1.33 9 1.66 9 2 C7.02 2 5.04 2 3 2 C3 3.65 3 5.3 3 7 C2.01 7 1.02 7 0 7 C0 4.69 0 2.38 0 0 Z " fill="#3B90F0" transform="translate(158,103)"/>
<path d="M0 0 C3.625 0.375 3.625 0.375 7 1 C6.4225 1.2475 5.845 1.495 5.25 1.75 C2.70354336 3.16469814 1.01491254 4.91560772 -1 7 C-1.33 7 -1.66 7 -2 7 C-2.125 4.625 -2.125 4.625 -2 2 C-1.34 1.34 -0.68 0.68 0 0 Z " fill="#1783F0" transform="translate(179,102)"/>
<path d="M0 0 C0.33 0 0.66 0 1 0 C1.268125 0.928125 1.53625 1.85625 1.8125 2.8125 C2.91148371 5.76240366 3.62418561 7.05615186 6 9 C4.35 9.33 2.7 9.66 1 10 C-1.56687367 6.1496895 -0.83288724 4.41430237 0 0 Z " fill="#1780E7" transform="translate(13,140)"/>
<path d="M0 0 C1.98270912 0.95098266 3.96108379 1.91100703 5.9375 2.875 C7.03964844 3.40867188 8.14179687 3.94234375 9.27734375 4.4921875 C12 6 12 6 13 8 C8.00786149 7.53198701 3.87036007 5.08284263 0 2 C0 1.34 0 0.68 0 0 Z " fill="#5097E3" transform="translate(77,175)"/>
<path d="M0 0 C2.475 0.495 2.475 0.495 5 1 C5.33 2.65 5.66 4.3 6 6 C4.125 5.8125 4.125 5.8125 2 5 C0.75 2.4375 0.75 2.4375 0 0 Z " fill="#1B84EF" transform="translate(176,115)"/>
<path d="M0 0 C0.66 0 1.32 0 2 0 C2.66 2.31 3.32 4.62 4 7 C2.02 7 0.04 7 -2 7 C-1.34 4.69 -0.68 2.38 0 0 Z " fill="#D5E5F7" transform="translate(83,107)"/>
<path d="M0 0 C5.75 1.75 5.75 1.75 8 4 C6.39504433 3.88557539 4.79101881 3.75805306 3.1875 3.625 C2.29417969 3.55539063 1.40085937 3.48578125 0.48046875 3.4140625 C-2 3 -2 3 -5 1 C-3.35 1 -1.7 1 0 1 C0 0.67 0 0.34 0 0 Z " fill="#80B25C" transform="translate(88,198)"/>
<path d="M0 0 C-0.33 0.66 -0.66 1.32 -1 2 C-3.3140622 2.73075648 -5.64828869 3.40138258 -8 4 C-7.67 3.01 -7.34 2.02 -7 1 C-7.66 0.67 -8.32 0.34 -9 0 C-5.67465243 -1.10844919 -3.37817425 -0.84454356 0 0 Z " fill="#2282CD" transform="translate(43,157)"/>
<path d="M0 0 C4.67105792 1.55701931 8.08705685 4.08447373 12 7 C11.34 7.66 10.68 8.32 10 9 C8.33043913 7.69118353 6.66441696 6.37785174 5 5.0625 C4.071875 4.33160156 3.14375 3.60070313 2.1875 2.84765625 C1.465625 2.23792969 0.74375 1.62820312 0 1 C0 0.67 0 0.34 0 0 Z " fill="#549AE1" transform="translate(162,47)"/>
<path d="M0 0 C4.29 0 8.58 0 13 0 C13 0.33 13 0.66 13 1 C10.36 1 7.72 1 5 1 C5 1.66 5 2.32 5 3 C3.35 3 1.7 3 0 3 C0 2.01 0 1.02 0 0 Z " fill="#1883EF" transform="translate(109,188)"/>
<path d="M0 0 C1.52519276 0.08937803 3.04681929 0.24537146 4.5625 0.4375 C5.80193359 0.59025391 5.80193359 0.59025391 7.06640625 0.74609375 C7.70449219 0.82988281 8.34257813 0.91367188 9 1 C9 1.33 9 1.66 9 2 C7.02 2 5.04 2 3 2 C3 3.65 3 5.3 3 7 C2.01 7 1.02 7 0 7 C-0.38133299 5.0085944 -0.71325582 3.00720923 -1 1 C-0.67 0.67 -0.34 0.34 0 0 Z " fill="#4495F0" transform="translate(98,103)"/>
<path d="M0 0 C1.65 0 3.3 0 5 0 C5 0.99 5 1.98 5 3 C5.66 3.33 6.32 3.66 7 4 C4.03 4 1.06 4 -2 4 C-1.34 3.67 -0.68 3.34 0 3 C0 2.01 0 1.02 0 0 Z " fill="#3991EF" transform="translate(182,118)"/>
<path d="M0 0 C1.65 0.99 3.3 1.98 5 3 C4.34 5.31 3.68 7.62 3 10 C2.67 10 2.34 10 2 10 C1.34 6.7 0.68 3.4 0 0 Z " fill="#589E24" transform="translate(211,67)"/>
<path d="M0 0 C-2.96687001 1.64826111 -5.65626525 2.44271087 -9 3 C-9.33 2.34 -9.66 1.68 -10 1 C-6.1496895 -1.56687367 -4.41430237 -0.83288724 0 0 Z " fill="#68A63E" transform="translate(100,26)"/>
<path d="M0 0 C1.5 1.375 1.5 1.375 3 3 C3 3.66 3 4.32 3 5 C1.35 5.33 -0.3 5.66 -2 6 C-2.33 4.68 -2.66 3.36 -3 2 C-2.01 2 -1.02 2 0 2 C0 1.34 0 0.68 0 0 Z " fill="#3189DF" transform="translate(190,70)"/>
<path d="M0 0 C1.65 0 3.3 0 5 0 C4.67 0.99 4.34 1.98 4 3 C2.02 3.33 0.04 3.66 -2 4 C-1.34 2.68 -0.68 1.36 0 0 Z " fill="#1B82E9" transform="translate(31,158)"/>
<path d="M0 0 C-4.30769231 3.07692308 -4.30769231 3.07692308 -7.8125 2.6875 C-8.534375 2.460625 -9.25625 2.23375 -10 2 C-6.19832777 -0.53444815 -4.31588991 -1.33941411 0 0 Z " fill="#2181CB" transform="translate(39,145)"/>
<path d="M0 0 C0.33 0.99 0.66 1.98 1 3 C-1.3125 4.125 -1.3125 4.125 -4 5 C-4.99 4.34 -5.98 3.68 -7 3 C-4.69 2.01 -2.38 1.02 0 0 Z " fill="#4291E7" transform="translate(55,149)"/>
<path d="M0 0 C-5.75 4 -5.75 4 -8 4 C-7 1 -7 1 -5.125 -0.25 C-3 -1 -3 -1 0 0 Z " fill="#2D88E6" transform="translate(64,147)"/>
<path d="M0 0 C0.99 0.33 1.98 0.66 3 1 C1.71034824 2.37562854 0.37310707 3.70766393 -1 5 C-1.66 5 -2.32 5 -3 5 C-1.125 1.125 -1.125 1.125 0 0 Z " fill="#E8EEE5" transform="translate(157,96)"/>
</svg>
